{
  "accessors": [
    {
      "bufferView": 1,
      "componentType": 5126,
      "count": 65532,
      "max": [
        0.024208342656493187,
        0.024199508130550385,
        0.03683860972523689
      ],
      "min": [
        -0.0240648053586483,
        -0.02421155571937561,
        -0.02244838885962963
      ],
      "type": "VEC3"
    },
    {
      "bufferView": 1,
      "byteOffset": 786384,
      "componentType": 5126,
      "count": 65532,
      "max": [
        0.9999994039535522,
        0.9997048377990723,
        0.9999935030937195
      ],
      "min": [
        -0.9957014322280884,
        -0.9999954104423523,
        -0.9999948740005493
      ],
      "type": "VEC3"
    },
    {
      "bufferView": 2,
      "componentType": 5126,
      "count": 65532,
      "max": [
        0.9921568632125854,
        0.7529411911964417,
        0.5490196347236633,
        1.0
      ],
      "min": [
        0.11372549086809158,
        0.05882352963089943,
        0.0,
        1.0
      ],
      "type": "VEC4"
    },
    {
      "bufferView": 0,
      "componentType": 5125,
      "count": 343761,
      "type": "SCALAR"
    },
    {
      "bufferView": 1,
      "byteOffset": 1572768,
      "componentType": 5126,
      "count": 65532,
      "max": [
        0.023339029401540756,
        0.02402719296514988,
        0.036834169179201126
      ],
      "min": [
        -0.02421734482049942,
        -0.024206209927797318,
        -0.022461481392383575
      ],
      "type": "VEC3"
    },
    {
      "bufferView": 1,
      "byteOffset": 2359152,
      "componentType": 5126,
      "count": 65532,
      "max": [
        0.9743505120277405,
        0.999992847442627,
        0.9996271729469299
      ],
      "min": [
        -0.9999889135360718,
        -0.9999904632568359,
        -0.9999949932098389
      ],
      "type": "VEC3"
    },
    {
      "bufferView": 2,
      "byteOffset": 1048512,
      "componentType": 5126,
      "count": 65532,
      "max": [
        0.9921568632125854,
        0.7137255072593689,
        0.5333333611488342,
        1.0
      ],
      "min": [
        0.11764705926179886,
        0.05882352963089943,
        0.0,
        1.0
      ],
      "type": "VEC4"
    },
    {
      "bufferView": 0,
      "byteOffset": 1375044,
      "componentType": 5125,
      "count": 323061,
      "type": "SCALAR"
    },
    {
      "bufferView": 1,
      "byteOffset": 3145536,
      "componentType": 5126,
      "count": 65532,
      "max": [
        0.022267349064350128,
        0.024211350828409195,
        0.03683723881840706
      ],
      "min": [
        -0.02421463467180729,
        -0.02345476672053337,
        -0.0224288422614336
      ],
      "type": "VEC3"
    },
    {
      "bufferView": 1,
      "byteOffset": 3931920,
      "componentType": 5126,
      "count": 65532,
      "max": [
        0.9999994039535522,
        0.999992847442627,
        0.9998852610588074
      ],
      "min": [
        -0.9999930262565613,
        -0.9999687075614929,
        -0.9999907612800598
      ],
      "type": "VEC3"
    },
    {
      "bufferView": 2,
      "byteOffset": 2097024,
      "componentType": 5126,
      "count": 65532,
      "max": [
        0.9882352948188782,
        0.6901960968971252,
        0.5137255191802979,
        1.0
      ],
      "min": [
        0.12156862765550613,
        0.062745101749897,
        0.0,
        1.0
      ],
      "type": "VEC4"
    },
    {
      "bufferView": 0,
      "byteOffset": 2667288,
      "componentType": 5125,
      "count": 285297,
      "type": "SCALAR"
    },
    {
      "bufferView": 1,
      "byteOffset": 4718304,
      "componentType": 5126,
      "count": 15724,
      "max": [
        0.017892882227897644,
        0.023751275613904,
        0.0368356890976429
      ],
      "min": [
        -0.024184061214327812,
        -0.016939297318458557,
        -0.022422287613153458
      ],
      "type": "VEC3"
    },
    {
      "bufferView": 1,
      "byteOffset": 4906992,
      "componentType": 5126,
      "count": 15724,
      "max": [
        0.9886475801467896,
        0.9815460443496704,
        0.9998214244842529
      ],
      "min": [
        -0.9991211295127869,
        -0.9999418258666992,
        -0.9999564290046692
      ],
      "type": "VEC3"
    },
    {
      "bufferView": 2,
      "byteOffset": 3145536,
      "componentType": 5126,
      "count": 15724,
      "max": [
        0.9843137264251709,
        0.6941176652908325,
        0.49803921580314636,
        1.0
      ],
      "min": [
        0.13333334028720856,
        0.07450980693101883,
        0.0,
        1.0
      ],
      "type": "VEC4"
    },
    {
      "bufferView": 0,
      "byteOffset": 3808476,
      "componentType": 5125,
      "count": 47913,
      "type": "SCALAR"
    }
  ],
  "asset": {
    "extras": {
      "author": "pixelanvil (https://sketchfab.com/pixelanvil)",
      "license": "CC-BY-4.0 (http://creativecommons.org/licenses/by/4.0/)",
      "source": "https://sketchfab.com/3d-models/easteregg-2015-16070edff1ef4765a963158a3c541a06",
      "title": " EasterEgg - 2015"
    },
    "generator": "Sketchfab-12.66.0",
    "version": "2.0"
  },
  "bufferViews": [
    {
      "buffer": 0,
      "byteLength": 4000128,
      "name": "floatBufferViews",
      "target": 34963
    },
    {
      "buffer": 0,
      "byteLength": 5095680,
      "byteOffset": 4000128,
      "byteStride": 12,
      "name": "floatBufferViews",
      "target": 34962
    },
    {
      "buffer": 0,
      "byteLength": 3397120,
      "byteOffset": 9095808,
      "byteStride": 16,
      "name": "floatBufferViews",
      "target": 34962
    }
  ],
  "buffers": [
    {
      "byteLength": 12492928,
      "uri": "scene.bin"
    }
  ],
  "materials": [
    {
      "name": "Scene_-_Root",
      "pbrMetallicRoughness": {
        "baseColorFactor": [
          0.36,
          0.36,
          0.36,
          1.0
        ],
        "metallicFactor": 0.0,
        "roughnessFactor": 0.6
      }
    }
  ],
  "meshes": [
    {
      "name": "Object_0",
      "primitives": [
        {
          "attributes": {
            "COLOR_0": 2,
            "NORMAL": 1,
            "POSITION": 0
          },
          "indices": 3,
          "material": 0,
          "mode": 4
        }
      ]
    },
    {
      "name": "Object_1",
      "primitives": [
        {
          "attributes": {
            "COLOR_0": 6,
            "NORMAL": 5,
            "POSITION": 4
          },
          "indices": 7,
          "material": 0,
          "mode": 4
        }
      ]
    },
    {
      "name": "Object_2",
      "primitives": [
        {
          "attributes": {
            "COLOR_0": 10,
            "NORMAL": 9,
            "POSITION": 8
          },
          "indices": 11,
          "material": 0,
          "mode": 4
        }
      ]
    },
    {
      "name": "Object_3",
      "primitives": [
        {
          "attributes": {
            "COLOR_0": 14,
            "NORMAL": 13,
            "POSITION": 12
          },
          "indices": 15,
          "material": 0,
          "mode": 4
        }
      ]
    }
  ],
  "nodes": [
    {
      "children": [
        1
      ],
      "matrix": [
        1.0,
        0.0,
        0.0,
        0.0,
        0.0,
        2.220446049250313e-16,
        -1.0,
        0.0,
        0.0,
        1.0,
        2.220446049250313e-16,
        0.0,
        0.0,
        0.0,
        0.0,
        1.0
      ],
      "name": "Sketchfab_model"
    },
    {
      "children": [
        2,
        3,
        4,
        5
      ],
      "name": "Geode"
    },
    {
      "mesh": 0,
      "name": "Object_2"
    },
    {
      "mesh": 1,
      "name": "Object_3"
    },
    {
      "mesh": 2,
      "name": "Object_4"
    },
    {
      "mesh": 3,
      "name": "Object_5"
    }
  ],
  "scene": 0,
  "scenes": [
    {
      "name": "Sketchfab_Scene",
      "nodes": [
        0
      ]
    }
  ]
}
